<mxfile host="drawio-plugin" modified="2023-09-12T15:17:10.917Z" agent="5.0 (Macintosh; Intel Mac OS X 10_15_7) AppleWebKit/537.36 (KHTML, like Gecko) Chrome/111.0.0.0 Safari/537.36" etag="5B7ENwv14yRXtOM4tvma" version="20.5.3" type="embed"><diagram id="fYM-zQ9Fm5gfY2XTCvBm" name="Page-1"><mxGraphModel dx="2337" dy="1540" grid="1" gridSize="10" guides="1" tooltips="1" connect="1" arrows="1" fold="1" page="1" pageScale="1" pageWidth="850" pageHeight="1100" math="0" shadow="0"><root><mxCell id="0"/><mxCell id="1" parent="0"/><mxCell id="2" value="" style="rounded=0;whiteSpace=wrap;html=1;fillColor=#293136;fontColor=#ffffff;strokeColor=#006EAF;fontStyle=1;fontFamily=Helvetica;" parent="1" vertex="1"><mxGeometry x="120" y="230" width="345" height="650" as="geometry"/></mxCell><mxCell id="4" value="" style="rounded=0;whiteSpace=wrap;html=1;fillColor=#3B332D;" parent="1" vertex="1"><mxGeometry x="480" y="230" width="240" height="650" as="geometry"/></mxCell><mxCell id="5" value="glue-to-test" style="rounded=1;whiteSpace=wrap;html=1;fillColor=#1ba1e2;fontColor=#ffffff;strokeColor=#006EAF;" parent="1" vertex="1"><mxGeometry x="145" y="295" width="120" height="60" as="geometry"/></mxCell><mxCell id="7" value="Prod Branch" style="text;strokeColor=none;fillColor=none;html=1;fontSize=24;fontStyle=1;verticalAlign=middle;align=center;fontFamily=Helvetica;" parent="1" vertex="1"><mxGeometry x="550" y="235" width="100" height="40" as="geometry"/></mxCell><mxCell id="10" value="delete-existing-data" style="rounded=1;whiteSpace=wrap;html=1;absoluteArcSize=1;arcSize=14;strokeWidth=2;fontFamily=Helvetica;fillColor=#3B332D;" parent="1" vertex="1"><mxGeometry x="155" y="385" width="100" height="40" as="geometry"/></mxCell><mxCell id="12" value="redeploy-environment" style="rounded=1;whiteSpace=wrap;html=1;absoluteArcSize=1;arcSize=14;strokeWidth=2;fontFamily=Helvetica;fillColor=#3B332D;" parent="1" vertex="1"><mxGeometry x="155" y="458" width="100" height="40" as="geometry"/></mxCell><mxCell id="16" value="build-and-deploy" style="rounded=1;whiteSpace=wrap;html=1;fontFamily=Helvetica;fillColor=#6B6B6A;" parent="1" vertex="1"><mxGeometry x="315" y="498" width="120" height="60" as="geometry"/></mxCell><mxCell id="18" value="" style="edgeStyle=segmentEdgeStyle;endArrow=classic;html=1;rounded=0;fontFamily=Helvetica;" parent="1" edge="1"><mxGeometry width="50" height="50" relative="1" as="geometry"><mxPoint x="205" y="498" as="sourcePoint"/><mxPoint x="315" y="515" as="targetPoint"/><Array as="points"><mxPoint x="205" y="515"/><mxPoint x="315" y="515"/></Array></mxGeometry></mxCell><mxCell id="19" value="wait-for-deployment" style="rounded=1;whiteSpace=wrap;html=1;absoluteArcSize=1;arcSize=14;strokeWidth=2;fontFamily=Helvetica;fillColor=#3B332D;" parent="1" vertex="1"><mxGeometry x="155" y="558" width="100" height="40" as="geometry"/></mxCell><mxCell id="20" value="" style="edgeStyle=segmentEdgeStyle;endArrow=classic;html=1;rounded=0;fontFamily=Helvetica;" parent="1" edge="1"><mxGeometry width="50" height="50" relative="1" as="geometry"><mxPoint x="315" y="537" as="sourcePoint"/><mxPoint x="205" y="557" as="targetPoint"/><Array as="points"><mxPoint x="205" y="537"/><mxPoint x="205" y="557"/></Array></mxGeometry></mxCell><mxCell id="24" value="" style="edgeStyle=segmentEdgeStyle;endArrow=classic;html=1;rounded=0;fontFamily=Helvetica;entryX=0.5;entryY=0;entryDx=0;entryDy=0;" parent="1" target="10" edge="1"><mxGeometry width="50" height="50" relative="1" as="geometry"><mxPoint x="205" y="355" as="sourcePoint"/><mxPoint x="1106" y="1005" as="targetPoint"/><Array as="points"><mxPoint x="205" y="365"/><mxPoint x="205" y="365"/></Array></mxGeometry></mxCell><mxCell id="25" value="" style="edgeStyle=segmentEdgeStyle;endArrow=classic;html=1;rounded=0;fontFamily=Helvetica;entryX=0.5;entryY=0;entryDx=0;entryDy=0;" parent="1" edge="1"><mxGeometry width="50" height="50" relative="1" as="geometry"><mxPoint x="206" y="427" as="sourcePoint"/><mxPoint x="206" y="457" as="targetPoint"/><Array as="points"><mxPoint x="206" y="437"/><mxPoint x="206" y="437"/></Array></mxGeometry></mxCell><mxCell id="26" value="" style="edgeStyle=segmentEdgeStyle;endArrow=classic;html=1;rounded=0;fontFamily=Helvetica;entryX=0.5;entryY=0;entryDx=0;entryDy=0;" parent="1" edge="1"><mxGeometry width="50" height="50" relative="1" as="geometry"><mxPoint x="205" y="599" as="sourcePoint"/><mxPoint x="205" y="629" as="targetPoint"/><Array as="points"><mxPoint x="205" y="609"/><mxPoint x="205" y="609"/></Array></mxGeometry></mxCell><mxCell id="27" value="initiate-glue-job" style="rounded=1;whiteSpace=wrap;html=1;absoluteArcSize=1;arcSize=14;strokeWidth=2;fontFamily=Helvetica;fillColor=#3B332D;" parent="1" vertex="1"><mxGeometry x="155" y="630" width="100" height="40" as="geometry"/></mxCell><mxCell id="28" value="sync-s3-to-lower-env" style="rounded=1;whiteSpace=wrap;html=1;fontFamily=Helvetica;fillColor=#FAA543;" parent="1" vertex="1"><mxGeometry x="315" y="670" width="120" height="60" as="geometry"/></mxCell><mxCell id="29" value="glue-to-lower-env" style="rounded=1;whiteSpace=wrap;html=1;fontFamily=Helvetica;fillColor=#C549FA;" parent="1" vertex="1"><mxGeometry x="540" y="670" width="120" height="60" as="geometry"/></mxCell><mxCell id="31" value="" style="edgeStyle=segmentEdgeStyle;endArrow=classic;html=1;rounded=0;fontFamily=Helvetica;" parent="1" edge="1"><mxGeometry width="50" height="50" relative="1" as="geometry"><mxPoint x="205" y="670" as="sourcePoint"/><mxPoint x="315" y="687" as="targetPoint"/><Array as="points"><mxPoint x="205" y="687"/><mxPoint x="315" y="687"/></Array></mxGeometry></mxCell><mxCell id="32" value="" style="edgeStyle=segmentEdgeStyle;endArrow=classic;html=1;rounded=0;fontFamily=Helvetica;exitX=1;exitY=0.5;exitDx=0;exitDy=0;" parent="1" source="27" target="29" edge="1"><mxGeometry width="50" height="50" relative="1" as="geometry"><mxPoint x="284" y="631" as="sourcePoint"/><mxPoint x="284" y="574.5789473684212" as="targetPoint"/><Array as="points"><mxPoint x="600" y="650"/></Array></mxGeometry></mxCell><mxCell id="34" value="wait-for-s3-sync" style="rounded=1;whiteSpace=wrap;html=1;absoluteArcSize=1;arcSize=14;strokeWidth=2;fontFamily=Helvetica;fillColor=#3B332D;" parent="1" vertex="1"><mxGeometry x="145" y="730" width="50" height="40" as="geometry"/></mxCell><mxCell id="36" value="wait-for-glue" style="rounded=1;whiteSpace=wrap;html=1;absoluteArcSize=1;arcSize=14;strokeWidth=2;fontFamily=Helvetica;fillColor=#3B332D;" parent="1" vertex="1"><mxGeometry x="215" y="730" width="50" height="40" as="geometry"/></mxCell><mxCell id="37" value="" style="edgeStyle=segmentEdgeStyle;endArrow=classic;html=1;rounded=0;fontFamily=Helvetica;" parent="1" target="34" edge="1"><mxGeometry width="50" height="50" relative="1" as="geometry"><mxPoint x="315" y="711" as="sourcePoint"/><mxPoint x="205" y="731" as="targetPoint"/><Array as="points"><mxPoint x="170" y="711"/></Array></mxGeometry></mxCell><mxCell id="38" value="" style="edgeStyle=segmentEdgeStyle;endArrow=classic;html=1;rounded=0;fontFamily=Helvetica;exitX=0.5;exitY=1;exitDx=0;exitDy=0;" parent="1" source="29" target="36" edge="1"><mxGeometry width="50" height="50" relative="1" as="geometry"><mxPoint x="610" y="740" as="sourcePoint"/><mxPoint x="565" y="605" as="targetPoint"/><Array as="points"><mxPoint x="600" y="750"/></Array></mxGeometry></mxCell><mxCell id="40" value="cleanup-glue-job" style="rounded=1;whiteSpace=wrap;html=1;absoluteArcSize=1;arcSize=14;strokeWidth=2;fontFamily=Helvetica;fillColor=#3B332D;" parent="1" vertex="1"><mxGeometry x="155" y="801" width="100" height="40" as="geometry"/></mxCell><mxCell id="41" value="" style="edgeStyle=segmentEdgeStyle;endArrow=classic;html=1;rounded=0;fontFamily=Helvetica;entryX=0.5;entryY=0;entryDx=0;entryDy=0;" parent="1" edge="1"><mxGeometry width="50" height="50" relative="1" as="geometry"><mxPoint x="170" y="770" as="sourcePoint"/><mxPoint x="170" y="800" as="targetPoint"/><Array as="points"><mxPoint x="170" y="780"/><mxPoint x="170" y="780"/></Array></mxGeometry></mxCell><mxCell id="42" value="" style="edgeStyle=segmentEdgeStyle;endArrow=classic;html=1;rounded=0;fontFamily=Helvetica;entryX=0.5;entryY=0;entryDx=0;entryDy=0;" parent="1" edge="1"><mxGeometry width="50" height="50" relative="1" as="geometry"><mxPoint x="240" y="770" as="sourcePoint"/><mxPoint x="240" y="800" as="targetPoint"/><Array as="points"><mxPoint x="240" y="780"/><mxPoint x="240" y="780"/></Array></mxGeometry></mxCell><mxCell id="44" value="Test Branch" style="text;strokeColor=none;fillColor=none;html=1;fontSize=24;fontStyle=1;verticalAlign=middle;align=center;fontFamily=Helvetica;" parent="1" vertex="1"><mxGeometry x="242.5" y="235" width="100" height="40" as="geometry"/></mxCell></root></mxGraphModel></diagram></mxfile>